<svg xmlns="http://www.w3.org/2000/svg" width="399.96" height="353.5" viewBox="0 0 792 700">
  <path class="cls-1" d="M128.1,619.657c45.835-13.652,35.072-20.514,120.6-77.628-0.453.473-172.779-89.241-143.545-218.631-20.476-1.067-64.3-12.5-65.2-34.669-0.264-6.551,26.932-10.533,34.041-9.877C57.111,273.032,40,262.713,40,247.547c0-16.567,24.805-8.034,42.8-8.187C71.17,237.973,28.875,208.278,34.009,194c5.5-15.3,32.413,5.872,47.9,5.352-13.8-3.322-36.775-20.523-47.043-33.017-6.653-8.095-13.464-28.3-1.666-28.6,8.808-.223,21.479,3.413,29.612,6.336C45.828,138.745,26.19,124,28.019,102.982c1.711-19.635,28.429,10.6,35.706,13.534C52.442,104.307,21.183,68.18,35.041,46.931c4.592-7.049,30.845,25.41,37.22,29.226C67.479,70.841,28.086,7.163,47.674,5.632c6.019-.472,28.37,39.4,35.3,48.957,5.6,7.723,12.646,20.929,19.353,26.859C96.046,72.443,60.458,7.842,76.547.118c7.4-3.553,54.823,92.121,61.04,106.159-7.311-17.854-32.435-96.1-6.783-90.043,5.318,1.255,7.563,34.644,9.4,41.575,10.393,39.369,28.8,80.2,56.739,109.343,32.741,34.159,101.494,78.564,163.7,133.22,28.047,24.64,61.366,69.44,88.805,104.351,6.736-17.678,15.477-35.541,23.581-52.625,10.129-21.359,29.279-76.757,48.058-83.828,14.487-5.453,14.139,12.647,19.373,17.223,1.774-8.869-20.506-65.182,9.286-86.834,7.688-5.593,26.73,20.046,30.321,30.828-5.336-25.052-14.857-72.819,3.628-82.516,12.893-6.765,23.286,12.1,32.527,31.051-4.656-14.108-9.488-28.159-11.279-43.032-1.455-12.087-5.536-31.922,4.987-40.853,23.7-20.112,22.917,19.341,40.206,47.74-4.148-21.958-7.65-34.578-7.776-54-0.079-13.053,2.03-33.453,13.909-41.286,28.717-18.939,23.991,53.578,30.962,73.724,5.914-26.18-.017-54.838,6.744-76.586,4.287-13.806,9.907-41.746,29.394-40.433,8.187,0.551,10.708,8.025,9.8,16.453a308.8,308.8,0,0,0-1.878,41.281c0.109,10.634,6.131,49.977,5.594,69.139,2.722-21.547,10.763-67.713,13.989-78.669,3.661-12.441,23-39.063,31.276-24.8,4.514,7.776,5.343,30.867,5.964,39.549,0.688,9.644,2.274,19.428,3.088,29.161,3.372,40.35-3.629,80.148-21.987,115.916-30.669,59.775-108.816,128.139-145,174.454-28.195,36.091-38.831,43.521-37.184,68.936,22.658-1.216,43-4.226,51.914-10.878,22.917-17.083,42.563-20.5,72.024-10.257,29.469,10.257,30.413,55.8,26.2,64.9,7.637,23.91,3.359,43.548,3.359,43.548s-11.119-12.5-21.383-20.531c-9.441-7.386-23.093-6.249-23.093-6.249s-17.822,10.563-44.011,31.052-42.564,17.083-68.753,40.993-114.6,64.9-160.431,64.9S308.256,648.783,252.6,662.435c-55.659,13.671-132.1,37.546-184.376,37.546s-56.451-16.069-66.714-36.6C-12.858,634.657,82.259,633.328,128.1,619.657Z"/>
</svg>
