<svg xmlns="http://www.w3.org/2000/svg" viewBox="0 0 2598.051 312.277"><path d="M2328.776 21.828c-39.972 7.054-84.433 23.086-129.321 41.896 5.558 3.634 10.688 7.481 15.818 11.756 65.836-27.36 132.742-47.881 205.846-39.972 176.561 19.238 158.178 170.362 99.61 200.074-32.063 16.246-109.229 10.474-116.283-55.79-2.138-20.307 2.992-42.965 16.459-57.714 7.696-8.336 5.344-6.84 14.963-3.634 11.115 4.062 22.872 6.627 32.705.428 25.437-16.245-12.398-46.385-51.088-16.887-56.217 42.751-39.544 165.66 75.883 158.178 85.074-5.557 110.084-115.855 60.065-179.981-48.309-61.774-148.56-72.034-224.657-58.354zm-2059.501 0c39.972 7.054 84.433 23.086 129.321 41.896-5.557 3.634-10.688 7.481-15.818 11.756-65.836-27.36-132.742-47.881-205.846-39.972C.371 54.746 18.755 205.871 77.323 235.583c32.063 16.246 109.229 10.474 116.283-55.79 2.138-20.307-2.992-42.965-16.459-57.714-7.696-8.336-5.344-6.84-14.963-3.634-11.116 4.062-22.872 6.627-32.705.428-25.437-16.245 12.398-46.385 51.088-16.887 56.217 42.751 39.544 165.66-75.883 158.178C19.609 254.607-5.4 144.31 44.619 80.183 92.927 18.408 193.178 8.148 269.275 21.828z"/><path d="M2275.551 163.761h100.038c.427-5.344 1.069-10.688 2.138-15.818H2271.49c1.497 5.344 2.993 10.474 4.061 15.818zm-1953.051 0H222.462c-.427-5.344-1.069-10.688-2.138-15.818h106.237c-1.497 5.344-2.993 10.474-4.061 15.818zm2092.634 0h135.306c.428-5.344.428-10.688 0-15.818h-131.887c-1.71 5.13-2.779 10.474-3.419 15.818zm-2232.217 0H47.611c-.428-5.344-.428-10.688 0-15.818h131.887c1.71 5.13 2.779 10.474 3.419 15.818zm1995.59-72.249c-6.413-4.061-12.825-7.695-19.238-10.688-37.193 16.459-73.959 33.559-107.091 47.24l-128.467 47.667c-23.513 8.123-70.753 20.521-70.967 35.911-.214 17.528 33.559 10.688 33.987-2.565v-1.924l101.533-35.483c54.935-20.093 109.228-43.606 163.309-67.974 8.978-4.061 17.957-8.122 26.934-12.184zm-1758.963 0c6.413-4.061 12.825-7.695 19.238-10.688 37.193 16.459 73.959 33.559 107.091 47.24l128.466 47.667c23.513 8.123 70.753 20.521 70.966 35.911.214 17.528-33.559 10.688-33.987-2.565v-1.924L609.786 171.67c-54.935-20.093-109.228-43.606-163.309-67.974l-26.933-12.184zm1547.988 56.431h-111.367l-7.482 3.634c-8.336 4.061-16.459 8.122-24.795 12.184h101.107l42.537-15.818zm-1337.013 0h111.367l7.482 3.634c8.336 4.061 16.459 8.122 24.795 12.184H673.057l-42.538-15.818zm714.987 15.818h317.853c2.138-2.351 4.061-4.916 5.985-7.481 2.137-2.565 4.061-5.344 5.985-8.336h-329.824v15.817zm-92.961 0H934.693c-2.138-2.351-4.061-4.916-5.985-7.481-2.137-2.565-4.061-5.344-5.985-8.336h329.824v15.817zm972.346-15.818h-147.276c-12.825 5.344-25.651 10.688-38.476 15.818h191.951c-1.495-5.344-3.633-10.688-6.199-15.818zm-1851.731 0h147.276c12.825 5.344 25.651 10.688 38.476 15.818H366.961c1.495-5.344 3.633-10.688 6.199-15.818z"/><path d="M1927.345 51.326c-66.691 22.23-162.667 75.241-230.855 115.641 4.703-6.626 8.551-13.039 11.757-19.452 4.061-8.764 7.268-17.314 9.191-26.292 2.352-9.405 3.634-19.238 3.42-29.284-.428-8.978-1.924-17.955-4.917-26.292-3.634-8.978-8.978-17.314-16.246-24.368-6.84-6.626-15.39-11.97-25.223-15.604-9.619-3.634-20.734-5.344-31.422-5.558-11.115 0-22.017 1.496-30.994 4.703-8.123 2.992-14.749 7.268-19.665 11.756-6.413 6.199-10.047 13.039-10.902 18.811-.641 3.848 0 7.268 1.283 10.046 1.283 2.779 3.206 4.703 5.557 6.199 2.565 1.283 5.344 1.924 8.337 1.496 2.993-.427 5.985-1.71 8.55-4.275 5.985-5.344 10.047-16.459 13.895-28.216 6.626-2.138 15.176-3.206 23.727-3.206 8.764.214 17.956 1.71 25.65 4.489 7.482 2.779 13.895 6.84 19.239 11.756a48.994 48.994 0 0111.97 18.169c2.352 6.413 3.634 13.467 3.848 20.521.213 8.336-.855 16.673-2.993 25.009-1.71 7.695-4.275 15.176-7.909 22.444-3.634 7.481-8.55 14.963-14.535 23.086-50.66 66.264-162.881 100.892-242.826 87.212-61.134-10.26-111.579-51.729-106.877-116.496 3.206-47.667 53.011-56.431 85.074-49.591 5.131 11.115 11.33 25.223 22.231 31.422 17.314 9.833 36.979-1.924 31.208-19.238-8.978-26.933-54.507-38.689-86.785-34.628-95.335 11.757-84.006 110.084-46.599 157.109 68.829 86.784 222.519 54.508 308.234 20.52 126.97-50.66 325.976-181.05 454.656-177.63 37.621.855 65.195 9.191 92.556 29.284 104.953 77.379 46.171 193.234-41.896 182.333-18.81-2.138-35.269-11.543-49.377-21.162 2.778-17.742 5.558-37.193-7.268-44.889-25.864-15.39-66.264 36.552 19.665 77.379 99.61 47.24 203.281-63.057 134.879-166.301-66.69-100.676-215.249-101.103-317.638-66.903z"/><path d="M670.706 51.326c66.691 22.23 162.667 75.241 230.855 115.641-4.703-6.626-8.551-13.039-11.757-19.452-4.061-8.764-7.268-17.314-9.191-26.292-2.352-9.405-3.634-19.238-3.42-29.284.428-8.978 1.924-17.955 4.917-26.292 3.634-8.978 8.978-17.314 16.246-24.368 6.84-6.626 15.39-11.97 25.223-15.604 9.619-3.634 20.734-5.344 31.422-5.558 11.115 0 22.017 1.496 30.994 4.703 8.123 2.992 14.749 7.268 19.665 11.756 6.413 6.199 10.047 13.039 10.902 18.811.641 3.848 0 7.268-1.283 10.046-1.283 2.779-3.206 4.703-5.557 6.199-2.565 1.283-5.344 1.924-8.336 1.496-2.993-.427-5.985-1.71-8.55-4.275-5.985-5.344-10.047-16.459-13.895-28.216-6.626-2.138-15.176-3.206-23.727-3.206-8.764.214-17.956 1.71-25.65 4.489-7.482 2.779-13.895 6.84-19.239 11.756a49.007 49.007 0 00-11.97 18.169c-2.352 6.413-3.634 13.467-3.848 20.521-.213 8.336.855 16.673 2.993 25.009 1.71 7.695 4.275 15.176 7.909 22.444 3.634 7.481 8.55 14.963 14.535 23.086 50.66 66.264 162.881 100.892 242.826 87.212 61.134-10.26 111.579-51.729 106.877-116.496-3.206-47.667-53.011-56.431-85.074-49.591-5.131 11.115-11.329 25.223-22.231 31.422-17.314 9.833-36.979-1.924-31.208-19.238 8.978-26.933 54.508-38.689 86.785-34.628 95.335 11.757 84.006 110.084 46.599 157.109-68.829 86.784-222.519 54.508-308.234 20.52-126.97-50.66-325.976-181.05-454.656-177.63-37.621.855-65.195 9.191-92.556 29.284-104.953 77.379-46.17 193.234 41.896 182.333 18.81-2.138 35.269-11.543 49.377-21.162-2.778-17.742-5.558-37.193 7.268-44.889 25.864-15.39 66.264 36.552-19.665 77.379-99.61 47.24-203.281-63.057-134.879-166.301C419.758 17.553 568.317 17.126 670.706 51.326z"/></svg>