<svg height="48" width="48" xmlns="http://www.w3.org/2000/svg"><path d="M44 40H4c-2.206 0-4-1.794-4-4V12c0-2.206 1.794-4 4-4h40c2.206 0 4 1.794 4 4v24c0 2.206-1.794 4-4 4zM4 10c-1.103 0-2 .897-2 2v24c0 1.103.897 2 2 2h40c1.103 0 2-.897 2-2V12c0-1.103-.897-2-2-2H4z"/><path d="M24 29.191L6.457 17.84a1 1 0 011.086-1.68L24 26.809 40.457 16.16a1 1 0 011.086 1.68L24 29.191zM6.001 34a1 1 0 01-.556-1.832l9-6a1 1 0 111.11 1.664l-9 6a1.004 1.004 0 01-.554.168zm35.998 0c-.19 0-.383-.055-.554-.168l-9-6a1 1 0 111.11-1.664l9 6A1 1 0 0141.999 34z"/></svg>