<svg height="60" width="60" xmlns="http://www.w3.org/2000/svg"><g fill="none" fill-rule="evenodd"><path d="M30 60c16.569 0 30-13.431 30-30C60 13.431 46.569 0 30 0 13.431 0 0 13.431 0 30c0 16.569 13.431 30 30 30z" fill="#CE6F2D"/><path d="M36.934 32.013l-15.382-3.167-.783 3.284 17.678 3.64.65-2.723.867.415 1.574-3.465-16.887-8.074-1.574 3.463 13.857 6.627zm6.912 1.449v10.384H16.154V33.462h3.461v6.923h20.77v-6.923h3.461zM20.77 35.769h18.462v3.462H20.769v-3.462zm23.077-8.806L41.543 30 26.538 18.349l1.667-2.195h1.72l13.921 10.809z" fill="#FFF"/></g></svg>